# File created by Blade
# Date/Time:  Tue Jan 27 18:09:18 2015
#---------------------------------------------------------
:version 1.10
:name HOM
:units
  mass 1.0
  length 1.000000
  angle deg
:documentation
     Acclaim Skeleton File
:root
   axis xyz
   order TX TY TZ RX RY RZ
   position 0.000000 0.000000 0.000000
   orientation 0 0 0
:bonedata
   begin
      id 1
      name Spine_dum
      direction 0.000000 1.000000 0.000000
      length 5.195262
      axis 0.0 0.0 0.0 xyz
   end
   begin
      id 2
      name LeftUpLeg_dum
      direction 1.000000 0.000000 0.000000
      length 3.351363
      axis 0.0 0.0 0.0 xyz
   end
   begin
      id 3
      name RightUpLeg_dum
      direction -1.000000 0.000000 0.000000
      length 3.351363
      axis 0.0 0.0 0.0 xyz
   end
   begin
      id 4
      name Spine
      direction 0.000000 1.000000 0.000000
      length 0.000000
      axis 0.0 0.0 0.0 xyz
      dof rx ry rz
   end
   begin
      id 5
      name Spine_dum1
      direction 0.000000 1.000000 0.000000
      length 15.653875
      axis 0.0 0.0 0.0 xyz
   end
   begin
      id 6
      name Spine_dum2
      direction 0.000000 1.000000 0.000000
      length 10.329768
      axis 0.0 0.0 0.0 xyz
   end
   begin
      id 7
      name Spine_dum3
      direction 0.000000 1.000000 0.000000
      length 10.329768
      axis 0.0 0.0 0.0 xyz
   end
   begin
      id 8
      name Head
      direction 0.000000 1.000000 0.000000
      length 4.527550
      axis 0.0 0.0 0.0 xyz
      dof rx ry rz
   end
   begin
      id 9
      name LeftShoulder
      direction 1.000000 0.000000 0.000000
      length 6.996006
      axis 0.0 0.0 -90.0 xyz
      dof rx ry rz
   end
   begin
      id 10
      name LeftArm
      direction 1.000000 0.000000 0.000000
      length 10.209302
      axis 0.0 0.0 -90.0 xyz
      dof rx ry rz
   end
   begin
      id 11
      name LeftForeArm
      direction 1.000000 0.000000 0.000000
      length 8.563163
      axis 0.0 0.0 -90.0 xyz
      dof ry rz rx
   end
   begin
      id 12
      name LeftHand
      direction 0.000000 0.000000 0.000000
      length 0.000000
      axis 0.0 0.0 -90.0 xyz
      dof rx ry rz
   end
   begin
      id 13
      name LeftHand_dum1
      direction 0.000000 0.000000 0.000000
      length 0.000000
      axis 0.0 0.0 -90.0 xyz
   end
   begin
      id 14
      name LeftHand_dum2
      direction 1.000000 0.000000 0.000000
      length 3.937000
      axis 0.0 0.0 -90.0 xyz
   end
   begin
      id 15
      name LeftHandThumb1
      direction 0.000000 0.000000 1.000000
      length 3.937000
      axis 0.0 0.0 -90.0 xyz
      dof rx rz ry
   end
   begin
      id 16
      name RightShoulder
      direction -1.000000 0.000000 0.000000
      length 6.996006
      axis 0.0 0.0 90.0 xyz
      dof rx ry rz
   end
   begin
      id 17
      name RightArm
      direction -1.000000 0.000000 0.000000
      length 10.209302
      axis 0.0 0.0 90.0 xyz
      dof rx ry rz
   end
   begin
      id 18
      name RightForeArm
      direction -1.000000 0.000000 0.000000
      length 8.563163
      axis 0.0 0.0 90.0 xyz
      dof ry rz rx
   end
   begin
      id 19
      name RightHand
      direction 0.000000 0.000000 0.000000
      length 0.000000
      axis 0.0 0.0 90.0 xyz
      dof rx ry rz
   end
   begin
      id 20
      name RightHand_dum1
      direction 0.000000 0.000000 0.000000
      length 0.000000
      axis 0.0 0.0 90.0 xyz
   end
   begin
      id 21
      name RightHand_dum2
      direction -1.000000 0.000000 0.000000
      length 3.937000
      axis 0.0 0.0 90.0 xyz
   end
   begin
      id 22
      name RightHandThumb1
      direction 0.000000 0.000000 1.000000
      length 3.937000
      axis 0.0 0.0 90.0 xyz
      dof rx rz ry
   end
   begin
      id 23
      name LeftUpLeg
      direction 0.000000 -1.000000 0.000000
      length 16.346831
      axis 0.0 0.0 0.0 xyz
      dof rx ry rz
   end
   begin
      id 24
      name LeftLeg
      direction 0.000000 -1.000000 0.000000
      length 13.959795
      axis 0.0 0.0 0.0 xyz
      dof rx ry rz
   end
   begin
      id 25
      name LeftFoot
      direction 0.000000 -0.258819 0.965926
      length 5.165550
      axis 15.0 0.0 0.0 xyz
      dof rx ry rz
   end
   begin
      id 26
      name LeftToeBase
      direction 0.000000 0.000000 1.000000
      length 2.952750
      axis 0.0 0.0 0.0 xyz
      dof rx ry rz
   end
   begin
      id 27
      name RightUpLeg
      direction 0.000000 -1.000000 0.000000
      length 16.346831
      axis 0.0 0.0 0.0 xyz
      dof rx ry rz
   end
   begin
      id 28
      name RightLeg
      direction 0.000000 -1.000000 0.000000
      length 13.959795
      axis 0.0 0.0 0.0 xyz
      dof rx ry rz
   end
   begin
      id 29
      name RightFoot
      direction 0.000000 -0.258819 0.965926
      length 5.165550
      axis 15.0 0.0 0.0 xyz
      dof rx ry rz
   end
   begin
      id 30
      name RightToeBase
      direction 0.000000 0.000000 1.000000
      length 2.952750
      axis 0.0 0.0 0.0 xyz
      dof rx ry rz
   end
:hierarchy
   begin
      root Spine_dum LeftUpLeg_dum RightUpLeg_dum
      Spine_dum Spine
      LeftUpLeg_dum LeftUpLeg
      RightUpLeg_dum RightUpLeg
      Spine Spine_dum1 Spine_dum2 Spine_dum3
      Spine_dum1 Head
      Spine_dum2 LeftShoulder
      Spine_dum3 RightShoulder
      LeftShoulder LeftArm
      LeftArm LeftForeArm
      LeftForeArm LeftHand
      LeftHand LeftHand_dum1 LeftHand_dum2
      LeftHand_dum1 LeftHandThumb1
      RightShoulder RightArm
      RightArm RightForeArm
      RightForeArm RightHand
      RightHand RightHand_dum1 RightHand_dum2
      RightHand_dum1 RightHandThumb1
      LeftUpLeg LeftLeg
      LeftLeg LeftFoot
      LeftFoot LeftToeBase
      RightUpLeg RightLeg
      RightLeg RightFoot
      RightFoot RightToeBase
   end

# File created by Blade
# Date/Time:  Tue Jan 27 18:09:10 2015
# Frame Rate: 120.000 fps
#------------------------------------------------------
:FULLY-SPECIFIED
:DEGREES
1412
root -1.765661 31.827421 -6.725974 6.165965 18.760023 4.114704
Spine -7.148615 1.300355 -6.442101
Head -3.406861 -19.931495 7.640834
LeftShoulder -8.070936 15.522443 5.588055
LeftArm 32.695737 46.079205 -61.591661
LeftForeArm -3.476545 -0.000000 13.737682
LeftHand -11.004715 -0.000000 -6.404347
LeftHandThumb1 -26.253704 0.000000 33.147579
RightShoulder 6.006850 24.945936 -35.835667
RightArm 58.587448 -19.872839 27.694476
RightForeArm 17.686981 0.000000 92.960514
RightHand -16.037527 0.000000 11.625235
RightHandThumb1 -24.326973 -0.000000 -32.862282
LeftUpLeg -3.526558 -7.912961 -0.058001
LeftLeg 1.398591 -0.000000 -0.000000
LeftFoot -14.834708 12.778658 -24.167903
LeftToeBase 8.705418 -0.000000 -0.000000
RightUpLeg 2.740023 -11.446765 -2.849832
RightLeg -3.432450 -0.000000 0.000000
RightFoot -17.123861 -18.238299 10.529309
RightToeBase 5.515169 -0.000000 -0.000000
1413
root -1.764240 31.827882 -6.729055 6.159150 18.732421 4.108276
Spine -7.141449 1.295247 -6.407966
Head -3.393024 -19.863042 7.585238
LeftShoulder -8.089722 15.515441 5.575868
LeftArm 32.671885 46.043833 -61.660192
LeftForeArm -3.488871 -0.000000 13.693510
LeftHand -10.999555 -0.000000 -6.363951
LeftHandThumb1 -26.253704 0.000000 33.147579
RightShoulder 6.025706 25.027603 -35.813675
RightArm 58.356286 -19.671185 28.091137
RightForeArm 17.662152 -0.000000 93.060477
RightHand -15.948226 -0.000000 11.739950
RightHandThumb1 -24.326973 -0.000000 -32.862282
LeftUpLeg -3.556283 -7.783163 -0.070419
LeftLeg 1.474161 -0.000000 -0.000000
LeftFoot -14.822678 12.715225 -24.069151
LeftToeBase 8.649186 -0.000000 -0.000000
RightUpLeg 2.729743 -11.444439 -2.848422
RightLeg -3.423887 -0.000000 0.000000
RightFoot -17.116885 -18.231006 10.520488
RightToeBase 5.506575 -0.000000 -0.000000
1414
root -1.759491 31.828549 -6.732775 6.160930 18.701994 4.117614
Spine -7.143825 1.306003 -6.380140
Head -3.375017 -19.816955 7.519222
LeftShoulder -8.089179 15.500959 5.558183
LeftArm 32.652801 46.020270 -61.722594
LeftForeArm -3.457646 -0.000000 13.633607
LeftHand -10.995799 -0.000000 -6.363218
LeftHandThumb1 -26.253704 0.000000 33.147579
RightShoulder 6.009707 25.048904 -35.821408
RightArm 58.173439 -19.412695 28.510858
RightForeArm 17.646598 0.000000 93.217090
RightHand -16.042617 -0.000000 11.718239
RightHandThumb1 -24.326973 -0.000000 -32.862282
LeftUpLeg -3.557942 -7.786862 -0.090622
LeftLeg 1.477030 -0.000000 -0.000000
LeftFoot -14.820842 12.750796 -24.060065
LeftToeBase 8.640250 -0.000000 -0.000000
RightUpLeg 2.723892 -11.424618 -2.868902
RightLeg -3.430544 -0.000000 0.000000
RightFoot -17.092614 -18.227810 10.502313
RightToeBase 5.503033 -0.000000 -0.000000
1415
root -1.755518 31.828756 -6.735477 6.155879 18.668468 4.125196
Spine -7.142639 1.317762 -6.357015
Head -3.348619 -19.767805 7.461586
LeftShoulder -8.082240 15.481862 5.549977
LeftArm 32.642662 46.028350 -61.756677
LeftForeArm -3.472961 -0.000000 13.586506
LeftHand -10.972528 -0.000000 -6.334298
LeftHandThumb1 -26.253704 0.000000 33.147579
RightShoulder 6.042582 25.068375 -35.811288
RightArm 57.849619 -19.127380 28.990492
RightForeArm 17.553085 -0.000000 93.344656
RightHand -15.712427 -0.000000 11.886744
RightHandThumb1 -24.326973 -0.000000 -32.862282
LeftUpLeg -3.548585 -7.778528 -0.109123
LeftLeg 1.476229 -0.000000 -0.000000
LeftFoot -14.835705 12.759300 -24.081826
LeftToeBase 8.664848 -0.000000 -0.000000
RightUpLeg 2.733501 -11.391893 -2.887059
RightLeg -3.450972 -0.000000 0.000000
RightFoot -17.084849 -18.245352 10.490847
RightToeBase 5.462712 -0.000000 -0.000000
1416
root -1.751152 31.829055 -6.738720 6.147778 18.636119 4.131069
Spine -7.131964 1.330773 -6.327703
Head -3.347077 -19.731259 7.417129
LeftShoulder -8.075698 15.452525 5.535752
LeftArm 32.650300 46.070500 -61.750122
LeftForeArm -3.506499 -0.000000 13.563322
LeftHand -10.978857 -0.000000 -6.302907
LeftHandThumb1 -26.253704 0.000000 33.147579
RightShoulder 6.021476 25.028886 -35.818975
RightArm 57.616388 -18.768374 29.522130
RightForeArm 17.445798 0.000000 93.493827
RightHand -15.658619 -0.000000 11.945938
RightHandThumb1 -24.326973 -0.000000 -32.862282
LeftUpLeg -3.541825 -7.770007 -0.129153
LeftLeg 1.477791 -0.000000 -0.000000
LeftFoot -14.814433 12.800088 -24.038714
LeftToeBase 8.518019 -0.000000 -0.000000
RightUpLeg 2.733658 -11.373275 -2.904705
RightLeg -3.449982 -0.000000 0.000000
RightFoot -17.087407 -18.237209 10.510164
RightToeBase 5.518201 -0.000000 -0.000000
1417
root -1.746854 31.829008 -6.741798 6.132820 18.610849 4.130597
Spine -7.109561 1.324340 -6.288080
Head -3.365782 -19.695839 7.384761
LeftShoulder -8.094523 15.408467 5.514703
LeftArm 32.667289 46.133080 -61.720038
LeftForeArm -3.518355 0.000000 13.552343
LeftHand -10.976899 -0.000000 -6.314343
LeftHandThumb1 -26.253704 0.000000 33.147579
RightShoulder 6.032368 24.974768 -35.787631
RightArm 57.349633 -18.340986 30.077027
RightForeArm 17.404913 -0.000000 93.666498
RightHand -15.454183 -0.000000 12.062917
RightHandThumb1 -24.326973 -0.000000 -32.862282
LeftUpLeg -3.531553 -7.765349 -0.139986
LeftLeg 1.496631 -0.000000 -0.000000
LeftFoot -14.843580 12.781555 -24.050097
LeftToeBase 8.613159 -0.000000 -0.000000
RightUpLeg 2.745516 -11.362453 -2.917958
RightLeg -3.457939 -0.000000 0.000000
RightFoot -17.059900 -18.233205 10.487878
RightToeBase 5.450078 -0.000000 -0.000000
1418
root -1.740626 31.829973 -6.744523 6.128591 18.579171 4.145810
Spine -7.107718 1.329213 -6.260540
Head -3.359834 -19.682311 7.329245
LeftShoulder -8.083100 15.390572 5.485883
LeftArm 32.683038 46.175629 -61.681623
LeftForeArm -3.497843 0.000000 13.551951
LeftHand -11.028291 -0.000000 -6.285167
LeftHandThumb1 -26.253704 0.000000 33.147579
RightShoulder 6.031156 24.883901 -35.753216
RightArm 57.069542 -17.907533 30.725135
RightForeArm 17.474064 -0.000000 93.831936
RightHand -15.136558 -0.000000 11.822624
RightHandThumb1 -24.326973 -0.000000 -32.862282
LeftUpLeg -3.522695 -7.766780 -0.173873
LeftLeg 1.497781 -0.000000 -0.000000
LeftFoot -14.833826 12.844021 -24.013284
LeftToeBase 8.557583 -0.000000 -0.000000
RightUpLeg 2.752472 -11.358492 -2.949064
RightLeg -3.466129 -0.000000 0.000000
RightFoot -17.060757 -18.202895 10.512081
RightToeBase 5.505237 -0.000000 -0.000000
1419
root -1.735406 31.830532 -6.746736 6.115463 18.557640 4.153446
Spine -7.093761 1.318267 -6.222680
Head -3.360621 -19.668040 7.277639
LeftShoulder -8.084223 15.352362 5.452241
LeftArm 32.669297 46.200251 -61.663734
LeftForeArm -3.420559 -0.000000 13.555568
LeftHand -11.001096 -0.000000 -6.310630
LeftHandThumb1 -26.253704 0.000000 33.147579
RightShoulder 6.075577 24.917307 -35.683350
RightArm 56.625533 -17.521819 31.511580
RightForeArm 17.539118 -0.000000 94.032971
RightHand -14.725254 -0.000000 11.679112
RightHandThumb1 -24.326973 -0.000000 -32.862282
LeftUpLeg -3.505966 -7.748860 -0.194740
LeftLeg 1.494159 -0.000000 -0.000000
LeftFoot -14.853716 12.853468 -24.057512
LeftToeBase 8.625704 -0.000000 -0.000000
RightUpLeg 2.757923 -11.387128 -2.970470
RightLeg -3.454491 -0.000000 0.000000
RightFoot -17.040748 -18.181230 10.459605
RightToeBase 5.464061 -0.000000 -0.000000
1420
root -1.729307 31.830836 -6.748521 6.101769 18.526691 4.158431
Spine -7.087224 1.315228 -6.180832
Head -3.350492 -19.667190 7.212848
LeftShoulder -8.085922 15.343149 5.413566
LeftArm 32.704909 46.253232 -61.586736
LeftForeArm -3.398757 -0.000000 13.578336
LeftHand -11.030841 -0.000000 -6.333554
LeftHandThumb1 -26.253704 0.000000 33.147579
RightShoulder 6.096709 24.997290 -35.600359
RightArm 56.181351 -17.154690 32.320586
RightForeArm 17.477122 0.000000 94.231691
RightHand -14.462781 -0.000000 11.739004
RightHandThumb1 -24.326973 -0.000000 -32.862282
LeftUpLeg -3.487423 -7.724072 -0.217610
LeftLeg 1.498786 -0.000000 -0.000000
LeftFoot -14.856248 12.866754 -24.050494
LeftToeBase 8.595815 -0.000000 -0.000000
RightUpLeg 2.771639 -11.358837 -2.991945
RightLeg -3.459318 -0.000000 0.000000
RightFoot -17.038511 -18.172412 10.480325
RightToeBase 5.440009 -0.000000 -0.000000
1421
root -1.723067 31.830241 -6.750052 6.092502 18.500956 4.164112
Spine -7.092570 1.307977 -6.137878
Head -3.327630 -19.665114 7.142531
LeftShoulder -8.080476 15.369143 5.377722
LeftArm 32.756136 46.259943 -61.516506
LeftForeArm -3.344855 0.000000 13.601755
LeftHand -11.029833 -0.000000 -6.289418
LeftHandThumb1 -26.253704 0.000000 33.147579
RightShoulder 6.107562 25.545137 -35.500094
RightArm 55.451137 -17.186881 33.347129
RightForeArm 17.567355 -0.000000 94.463006
RightHand -14.338658 -0.000000 11.618544
RightHandThumb1 -24.326973 -0.000000 -32.862282
LeftUpLeg -3.476312 -7.696150 -0.240624
LeftLeg 1.511138 -0.000000 -0.000000
LeftFoot -14.853073 12.847238 -24.002092
LeftToeBase 8.572433 -0.000000 -0.000000
RightUpLeg 2.783291 -11.351414 -3.014853
RightLeg -3.468092 -0.000000 0.000000
RightFoot -17.036758 -18.147495 10.501229
RightToeBase 5.509038 -0.000000 -0.000000
1422
root -1.716885 31.830633 -6.751220 6.087210 18.475805 4.182110
Spine -7.096855 1.317393 -6.110357
Head -3.310020 -19.707499 7.070964
LeftShoulder -8.079430 15.458346 5.322392
LeftArm 32.938742 46.273989 -61.315494
LeftForeArm -3.337173 -0.000000 13.624620
LeftHand -11.064198 0.000000 -6.327708
LeftHandThumb1 -26.253704 0.000000 33.147579
RightShoulder 6.146263 26.182861 -35.406847
RightArm 54.584147 -17.245416 34.519566
RightForeArm 17.543562 -0.000000 94.685545
RightHand -14.133269 -0.000000 11.634158
RightHandThumb1 -24.326973 -0.000000 -32.862282
LeftUpLeg -3.461353 -7.683792 -0.271292
LeftLeg 1.508831 -0.000000 -0.000000
LeftFoot -14.868726 12.861885 -24.035881
LeftToeBase 8.646334 -0.000000 -0.000000
RightUpLeg 2.790350 -11.358817 -3.049354
RightLeg -3.467278 -0.000000 0.000000
RightFoot -17.033726 -18.082841 10.588881
RightToeBase 5.406146 -0.000000 -0.000000
